<svg width="454" height="484" viewBox="0 0 454 484" fill="none" xmlns="http://www.w3.org/2000/svg">
<path d="M11.1298 154.122C2.78931 154.623 0.821365 160.591 0.87996 163.513C1.03091 172.879 9.98526 173.557 12.8328 173.177C22.4471 171.658 23.6607 163.755 23.0658 159.993L14.0468 127.956C10.8727 120.72 4.4498 124.194 5.90258 130.225L11.1298 154.122Z" fill="#1A1A1A"/>
<path d="M326.741 360.209C337.319 354.011 360.255 345.179 367.375 359.434C375.115 369.247 379.217 393.522 333.707 412.116L326.741 360.209Z" fill="#E0AA52"/>
<path d="M250.499 400.471C221.477 393.636 169.14 395.638 191.968 458.327" stroke="black" stroke-width="3"/>
<path d="M131.817 285.545C114.387 303.74 86.8528 348.659 116.151 382.777L115.433 387.569C102.907 381.659 80.2833 374.15 69.4048 383.024C59.7883 389.418 45.7584 410.621 67.2453 445.272C76.2271 458.796 106.585 478.647 149.806 465.611L183.534 456.332C191.357 469.015 226.856 493.972 298.984 448.628C309.613 442.024 330.871 426.506 330.871 417.261C338.108 407.041 347.406 382.068 326.701 363.933C332.311 348.524 335.342 308.983 302.589 274.094C260.821 251.321 168.19 221.73 131.817 285.545Z" fill="#E0AA52" stroke="black" stroke-width="3"/>
<path d="M352.119 117.774C351.892 118.38 351.69 118.91 351.516 119.359L264.02 55.5628C291.917 16.7049 312.485 4.63555 325.82 2.07296C332.531 0.783306 337.475 1.88586 340.709 3.25986C342.334 3.95002 343.539 4.71439 344.328 5.2952C344.723 5.5855 345.012 5.82941 345.197 5.99433C345.29 6.07675 345.356 6.13933 345.395 6.17796C345.415 6.19727 345.429 6.21059 345.435 6.21738L345.436 6.2177L345.438 6.21991L345.439 6.22146L345.441 6.22263L345.445 6.22704L345.454 6.23622C364.153 25.1902 365.651 53.6951 362.281 77.8445C360.603 89.8713 357.732 100.702 355.278 108.53C354.052 112.441 352.931 115.598 352.119 117.774Z" fill="#E0AA51" stroke="black" stroke-width="3"/>
<path d="M83.3074 8.61274L83.3075 8.61276L83.3092 8.61053C83.3095 8.61017 83.3099 8.60975 83.3103 8.60928C83.3145 8.60425 83.324 8.59299 83.3388 8.57595C83.3686 8.54188 83.4197 8.48481 83.4927 8.40853C83.6387 8.2559 83.8717 8.02685 84.1955 7.75144C84.8431 7.20061 85.8518 6.46587 87.2527 5.78501C90.0371 4.43177 94.4423 3.25573 100.77 4.25074C113.346 6.22839 133.657 16.8136 163.7 52.0032L78.5908 110.243C78.4473 109.921 78.2854 109.553 78.1073 109.139C77.3514 107.385 76.3065 104.823 75.1586 101.614C72.8616 95.1914 70.1587 86.1915 68.5297 75.8777C65.2663 55.2163 66.3441 29.5223 83.3074 8.61274Z" fill="#E0AA51" stroke="black" stroke-width="3"/>
<path d="M214.49 46.923L214.491 46.9231C261.45 48.944 298.332 62.5617 325.593 85.8612C352.856 109.162 370.627 142.258 379.158 183.474C384.33 208.467 382.104 229.149 374.585 246.128C367.064 263.112 354.189 276.515 337.858 286.849C305.148 307.547 258.734 315.823 214.555 315.823C170.353 315.823 122.442 308.237 89.1505 287.648C72.5337 277.371 59.613 263.89 52.5551 246.537C45.4988 229.188 44.2392 207.814 51.2204 181.633C62.374 139.842 75.1471 105.005 99.0719 81.1892C122.915 57.4545 158.066 44.458 214.49 46.923Z" fill="#E0AA52" stroke="black" stroke-width="3"/>
<path d="M85.9128 83.7437C85.9128 83.7437 80.0399 18.8989 89.538 13.3288C89.538 13.3288 104.039 6.85161 129.415 48.5453L85.9128 83.7437Z" fill="white"/>
<path d="M339.027 87.5176C339.027 87.5176 350.682 20.7677 341.656 14.3812C341.656 14.3812 325.868 11.3512 296.993 50.6682L339.027 87.5176Z" fill="white"/>
<path d="M177.051 172.211C180.975 172.211 184.156 169.027 184.156 165.099C184.156 161.171 180.975 157.986 177.051 157.986C173.127 157.986 169.946 161.171 169.946 165.099C169.946 169.027 173.127 172.211 177.051 172.211Z" fill="black" stroke="#231F20" stroke-width="0.25" stroke-linecap="round" stroke-linejoin="round"/>
<path d="M238.825 172.211C242.749 172.211 245.93 169.027 245.93 165.099C245.93 161.171 242.749 157.986 238.825 157.986C234.901 157.986 231.719 161.171 231.719 165.099C231.719 169.027 234.901 172.211 238.825 172.211Z" fill="black" stroke="#231F20" stroke-width="0.25" stroke-linecap="round" stroke-linejoin="round"/>
<path fill-rule="evenodd" clip-rule="evenodd" d="M157.55 200.895C109.734 198.836 78.0497 201.351 71.6667 248.395C67.3345 280.4 135.126 306.345 215.153 306.345C295.18 306.345 359.654 273.396 361.467 248.395C365.483 193.634 324.039 196.606 267.786 200.64C266.783 200.712 265.774 200.784 264.762 200.857C254.802 181.364 234.541 168.02 211.166 168.02C187.775 168.02 167.502 181.381 157.55 200.895Z" fill="white"/>
<path d="M112.324 274.031C125.618 274.031 136.395 264.771 136.395 253.348C136.395 241.924 125.618 232.664 112.324 232.664C99.0296 232.664 88.2524 241.924 88.2524 253.348C88.2524 264.771 99.0296 274.031 112.324 274.031Z" fill="#F9BCBE"/>
<path d="M315.081 274.031C328.376 274.031 339.153 264.771 339.153 253.348C339.153 241.924 328.376 232.664 315.081 232.664C301.787 232.664 291.01 241.924 291.01 253.348C291.01 264.771 301.787 274.031 315.081 274.031Z" fill="#F9BCBE"/>
<path fill-rule="evenodd" clip-rule="evenodd" d="M213.663 203.813C216.355 202.801 218.271 200.2 218.271 197.152C218.271 193.224 215.09 190.04 211.165 190.04C207.241 190.04 204.06 193.224 204.06 197.152C204.06 200.151 205.914 202.716 208.537 203.762C207.411 207.69 206.022 210.21 204.6 211.751C202.953 213.536 201.207 214.076 199.44 213.955C197.566 213.826 195.509 212.934 193.475 211.527C191.462 210.133 189.614 208.332 188.187 206.613C187.481 205.763 186.22 205.647 185.371 206.353C184.521 207.059 184.404 208.32 185.109 209.17C186.721 211.111 188.83 213.177 191.198 214.816C193.546 216.442 196.297 217.749 199.164 217.946C202.139 218.15 205.068 217.142 207.539 214.463C208.997 212.883 210.267 210.755 211.329 208.018C213.255 211.491 215.283 213.927 217.41 215.451C220.288 217.515 223.261 217.836 226.013 216.927C228.641 216.058 230.895 214.128 232.694 212.008C234.514 209.864 236.001 207.367 237.059 205.111C237.527 204.111 237.097 202.92 236.097 202.451C235.096 201.982 233.906 202.413 233.437 203.413C232.496 205.42 231.188 207.6 229.644 209.42C228.08 211.264 226.403 212.585 224.757 213.129C223.235 213.632 221.592 213.528 219.74 212.2C217.903 210.884 215.816 208.322 213.663 203.813Z" fill="black"/>
<path d="M161.572 321.419L203.662 345.587L263.131 323.746C264.108 321.266 262.359 317.298 247.542 321.267C246.33 320.892 247.486 310.843 245.66 310.08C243.417 309.22 241.196 310.618 238.93 312.375L205.972 335.77L169.175 318.488C166.731 317.35 161.79 316.342 161.572 321.419Z" fill="white"/>
<path d="M162.286 319.232C160.188 317.747 155.929 316.757 155.677 324.678L155.654 404.451L192.387 422.175C195.44 423.025 207.456 423.121 231.093 416.705L270.812 368.69C270.719 352.995 269.635 321.417 266.047 320.662L207.576 339.15C206.97 340.614 197.063 338.679 162.286 319.232Z" fill="#5CBC00"/>
<path d="M155.824 341.719C169.291 364.501 171.996 386.92 162.286 392.671C152.576 398.422 133.342 388.159 115.162 367.632C103.382 354.239 102.885 350.5 124.399 333.432C136.527 323.235 142.357 318.938 155.824 341.719Z" fill="#E0AA52"/>
<path d="M118.232 370.283C197.015 440.263 173.338 327.307 127.38 322.212" stroke="black" stroke-width="3" stroke-linecap="round"/>
<path d="M307.383 338.079C315.845 357.77 313.952 362.197 301.413 372.293C262.152 399.296 260.583 392.875 245.864 370.28C240.291 334.454 254.554 332.949 276.828 324.593C299.025 312.904 299.019 324.156 307.383 338.079Z" fill="#E0AA52"/>
<path d="M296.778 314.816C294.314 318.884 273.607 328.616 266.005 330.391C259.493 328.357 246.259 331.723 245.415 361.457C245.943 379.023 257.03 407.389 297.154 380.317C299.618 378.653 305.496 374.437 309.297 370.887" stroke="black" stroke-width="3" stroke-linecap="round"/>
<path fill-rule="evenodd" clip-rule="evenodd" d="M200.576 468.924C184.843 464.037 174.7 446.086 177.413 426.456C180.383 404.972 194 387 215.5 392C225.016 393.319 233.06 399.257 238.174 407.673L246.149 398.566L279 458.5C243.724 476.984 216.927 476.552 200.576 468.924Z" fill="white"/>
<ellipse cx="13.1004" cy="18.3551" rx="13.1004" ry="18.3551" transform="matrix(0.941449 -0.336611 0.299998 0.954121 178.096 429.336)" fill="black"/>
<ellipse cx="4.55997" cy="6.00085" rx="4.55997" ry="6.00085" transform="matrix(0.953026 0.303134 -0.302352 0.953118 215.179 419.763)" fill="black"/>
<ellipse cx="4.55997" cy="6.00085" rx="4.55997" ry="6.00085" transform="matrix(0.953026 0.303134 -0.302352 0.953118 206.105 403.599)" fill="black"/>
<ellipse cx="2.6338" cy="6.0012" rx="2.6338" ry="6.0012" transform="matrix(0.95303 0.303123 -0.302363 0.953115 187.245 403.599)" fill="black"/>
<path d="M238 407C224.903 388.403 186.703 376.765 178.879 423.753C174.766 445.657 184.181 478.709 230.523 474.291" stroke="black" stroke-width="2" stroke-linecap="round"/>
<path fill-rule="evenodd" clip-rule="evenodd" d="M88.7081 461.685C68.5338 452.59 58.2274 431.252 56.4999 417C54.1485 394.039 69.3301 373.999 95 381.501C95.9169 381.681 96.8878 381.972 97.8964 382.367L101.174 383.174L116.434 388.93L117.5 382.5L152.5 463.5C146.777 467.316 108.303 472.496 88.7081 461.685Z" fill="white"/>
<ellipse cx="13.1391" cy="18.5183" rx="13.1391" ry="18.5183" transform="matrix(0.979075 -0.188506 0.147998 0.991756 57.5665 404.971)" fill="black"/>
<ellipse cx="4.56641" cy="6.06219" rx="4.56641" ry="6.06219" transform="matrix(0.89366 0.451415 -0.441239 0.896078 88.7732 398.218)" fill="black"/>
<ellipse cx="4.56641" cy="6.06219" rx="4.56641" ry="6.06219" transform="matrix(0.89366 0.451415 -0.441239 0.896078 78.5226 385.312)" fill="black"/>
<ellipse cx="2.63755" cy="6.06269" rx="2.63755" ry="6.06269" transform="matrix(0.893665 0.451403 -0.44125 0.896072 64.7336 389.557)" fill="black"/>
<path d="M420.812 96.3257L449.436 111.109C450.421 111.738 452.164 113.476 451.253 115.401L432.29 145.897C429.499 150.055 417.686 150.74 414.755 142.92C413.184 137.829 414.149 129.015 430.58 134.493L440.198 119.145L420.374 107.923L405.274 130.008C401.519 134.836 392.592 135.691 389.253 128.628C385.995 120.844 389.343 110.669 406.525 115.684C407.546 113.87 419.283 96.2653 420.812 96.3257Z" fill="black" stroke="black"/>
</svg>
