<svg width="144" height="148" viewBox="0 0 144 148" fill="none" xmlns="http://www.w3.org/2000/svg">
<path d="M52.5091 104.246L49.4027 127.854L35.1144 137.586C34.2251 139.047 33.6628 141.807 38.5278 141.159L46.9607 135.888L47.204 145.537C48.1769 146.24 50.3499 147.094 51.2581 144.888L52.15 135.483L54.4203 134.429L63.5015 141.402C65.0691 141.726 68.0259 141.386 67.3124 137.429L54.8257 129.564L57.2582 105.888L52.5091 104.246Z" fill="#FFC414"/>
<path d="M80.2893 101.563L86.4674 124.558L77.0001 139.024C76.7387 140.714 77.2771 143.479 81.522 141.015L87.2912 132.915L91.2137 141.734C92.3817 142.01 94.7161 141.966 94.7097 139.581L91.9289 130.552L93.6218 128.708L104.682 131.669C106.254 131.368 108.855 129.92 106.679 126.539L92.1318 124.06L85.3048 101.259L80.2893 101.563Z" fill="#FFC414"/>
<path d="M123.305 33.5793C132.823 32.8051 149.809 36.093 141.612 55.4375C139.244 61.4485 131.338 74.4815 118.661 78.5252L123.305 33.5793Z" fill="#FFC414"/>
<path d="M73.6909 1.79685C42.0805 6.56817 33.3497 32.9433 32.9355 45.5344C27.9653 47.1248 24.7348 52.1613 23.7408 54.4808H0.87793C4.05884 87.4827 27.3855 105.674 38.6513 110.644C70.6592 121.379 92.909 111.472 100.033 105.177C130.649 81.1209 129.026 48.7651 124.387 35.5941C112.458 1.39929 85.6193 -1.18524 73.6909 1.79685Z" fill="#FFE500"/>
<path d="M72.5474 21.2469L81.7022 19.407" stroke="black"/>
<circle cx="60.1321" cy="25.3519" r="11.8479" stroke="#5CBC00"/>
<circle cx="94.6057" cy="18.5057" r="11.8479" stroke="#5CBC00"/>
<path d="M29.1865 47.0689C35.2515 43.8721 50.68 38.5719 63.874 42.9459C65.9655 43.5733 70.5786 46.065 72.2996 51.0127C72.7309 52.1395 73.2511 55.2176 71.8812 58.5154C69.7461 62.8701 64.9052 72.1504 62.6222 74.4334C58.817 78.9573 49.2028 88.0049 41.1867 88.0049C33.4718 88.7295 18.042 84.8256 18.042 63.4137C18.2903 58.6886 20.8667 48.8044 29.1865 47.0689Z" fill="#FFC414"/>
<circle cx="95.1388" cy="17.9408" r="5.50159" fill="black"/>
<circle cx="61.6652" cy="25.8124" r="5.50159" fill="black"/>
<path d="M68.7617 41.8527L79.6737 30.5556C80.3578 29.8159 82.1393 28.6039 83.7921 29.6737C84.9959 30.3585 88.0274 31.9576 90.5227 32.8762L97.0444 35.3559L68.7617 41.8527Z" fill="#FFC414"/>
<path d="M97.0205 35.2452L86.1085 46.5423C85.4244 47.282 83.643 48.494 81.9901 47.4242C80.7863 46.7394 77.7549 45.1403 75.2595 44.2217L68.7378 41.742L97.0205 35.2452Z" fill="#FFC414"/>
<path d="M69.1822 41.7791L82.1879 39.5781C85.1869 38.9951 92.1255 37.4137 95.8876 35.7524L96.4994 35.4878" stroke="#D6A206"/>
<circle cx="63.9194" cy="24.8655" r="1.59229" fill="white"/>
<circle cx="97.3364" cy="16.8655" r="1.59229" fill="white"/>
</svg>
