<svg width="25" height="25" viewBox="0 0 25 25" fill="none" xmlns="http://www.w3.org/2000/svg">
<path d="M21.6629 4.69774C17.1044 -0.0980612 9.49357 -0.291132 4.69777 4.26737C-0.0980293 8.82587 -0.2911 16.4367 4.2674 21.2325C8.8259 26.0283 16.4367 26.2213 21.2325 21.6628C26.0283 17.1043 26.2214 9.49354 21.6629 4.69774ZM20.3248 5.96964C24.1958 10.0422 24.0332 16.4537 19.9606 20.3247C15.8881 24.1958 9.47655 24.0331 5.60551 19.9606C1.73448 15.888 1.89712 9.47652 5.96967 5.60548C10.0422 1.73445 16.4537 1.89709 20.3248 5.96964ZM16.3435 8.48034L12.9982 11.6601L9.81849 8.31481L8.48037 9.58672L11.6601 12.932L8.31485 16.1118L9.58675 17.4499L12.932 14.2701L16.1118 17.6154L17.4499 16.3435L14.2701 12.9982L17.6154 9.81845L16.3435 8.48034Z" fill="black"/>
</svg>
