<svg width="25" height="25" viewBox="0 0 25 25" fill="none" xmlns="http://www.w3.org/2000/svg">
<path d="M12.4209 0.625C5.80428 0.625 0.420898 6.00838 0.420898 12.625C0.420898 19.2416 5.80428 24.625 12.4209 24.625C19.0375 24.625 24.4209 19.2416 24.4209 12.625C24.4209 6.00838 19.0375 0.625 12.4209 0.625ZM12.4209 2.47115C18.0397 2.47115 22.5747 7.00623 22.5747 12.625C22.5747 18.2438 18.0397 22.7788 12.4209 22.7788C6.80213 22.7788 2.26705 18.2438 2.26705 12.625C2.26705 7.00623 6.80213 2.47115 12.4209 2.47115ZM11.4978 7.08654V11.7019H6.88244V13.5481H11.4978V18.1635H13.344V13.5481H17.9594V11.7019H13.344V7.08654H11.4978Z" fill="black"/>
</svg>
