<svg width="149" height="149" viewBox="0 0 149 149" fill="none" xmlns="http://www.w3.org/2000/svg">
<rect x="-0.301429" y="0.642048" width="2.81794" height="17.3895" transform="matrix(-0.939532 0.342472 0.336675 0.941625 26.3223 42.6993)" fill="#FFE500" stroke="black"/>
<path d="M7.50471 39.3967C10.3836 47.4753 19.2284 51.6406 27.2583 48.7038C35.2883 45.7669 39.4669 36.8385 36.588 28.7599C33.7091 20.6813 24.8643 16.516 16.8344 19.4529C8.80443 22.3897 4.62579 31.3181 7.50471 39.3967Z" fill="#FFE500" stroke="black"/>
<path d="M28.1663 33.3884C28.5547 36.8317 26.1071 39.9004 22.7457 40.2795C19.3844 40.6586 16.3148 38.2121 15.9265 34.7688C15.5382 31.3255 17.9857 28.2568 21.3471 27.8778C24.7085 27.4987 27.778 29.9451 28.1663 33.3884Z" stroke="black" stroke-width="4"/>
<g clip-path="url(#clip0_569_2565)">
<path d="M102.461 102.799L107.134 121.742L119.549 128.368C120.4 129.477 121.107 131.673 117.125 131.588L109.841 128.062L110.531 135.942C109.811 136.603 108.138 137.496 107.203 135.782L105.62 128.205L103.692 127.553L97.0107 134.057C95.7765 134.463 93.3613 134.455 93.5731 131.168L102.919 123.628L98.7831 104.568L102.461 102.799Z" fill="#FFC414"/>
<path d="M79.8159 103.141L76.9464 122.429L85.9084 133.348C86.2744 134.701 86.0942 137.001 82.4452 135.381L77.0496 129.309L74.6969 136.848C73.7805 137.179 71.8942 137.355 71.6803 135.412L73.0933 127.807L71.5589 126.459L62.913 129.876C61.6179 129.774 59.3877 128.831 60.8317 125.88L72.3334 122.538L75.7439 103.35L79.8159 103.141Z" fill="#FFC414"/>
<path d="M38.8889 51.6899C31.1435 51.925 17.7497 56.1471 26.1355 71.1548C28.5969 75.8345 36.1685 85.729 46.7613 87.8692L38.8889 51.6899Z" fill="#FFC414"/>
<path d="M75.9741 21.2965C101.9 22.3076 111.362 42.9922 112.852 53.208C117.005 54.0512 120.073 57.8589 121.087 59.6574L139.522 57.5784C139.988 84.7426 122.85 101.678 114.223 106.75C89.4011 118.402 70.5512 112.358 64.229 107.879C37.3341 91.0732 35.6711 64.5768 38.2019 53.4291C44.6797 24.498 66.0823 19.9527 75.9741 21.2965Z" fill="#FFE500"/>
<path d="M78.6817 37.0315L71.1312 36.3657" stroke="black"/>
<path d="M90.1575 48.894C84.8815 49.489 80.1174 45.6517 79.5164 40.3231C78.9155 34.9944 82.7053 30.1924 87.9812 29.5974C93.2572 29.0024 98.0213 32.8397 98.6223 38.1683C99.2233 43.4969 95.4334 48.299 90.1575 48.894Z" stroke="#5CBC00"/>
<path d="M61.7327 46.4536C56.4567 47.0486 51.6926 43.2112 51.0916 37.8826C50.4907 32.554 54.2805 27.752 59.5564 27.157C64.8324 26.5619 69.5965 30.3993 70.1975 35.7279C70.7985 41.0565 67.0086 45.8585 61.7327 46.4536Z" stroke="#5CBC00"/>
<path d="M116.015 54.117C110.831 52.0652 97.9044 49.152 87.6678 53.9137C86.0391 54.6148 82.5484 57.0634 81.6152 61.249C81.3709 62.2059 81.2342 64.7598 82.6416 67.3208C84.763 70.6729 89.5186 77.7901 91.569 79.4416C95.0526 82.7796 103.635 89.2732 110.099 88.5443C116.386 88.4329 128.468 83.8506 126.502 66.4139C125.868 62.5886 122.883 54.7737 116.015 54.117Z" fill="#FFC414"/>
<path d="M60.6684 40.8738C58.2185 41.1501 56.0062 39.3682 55.7272 36.8938C55.4481 34.4195 57.2079 32.1897 59.6578 31.9134C62.1077 31.6371 64.32 33.4189 64.599 35.8933C64.8781 38.3676 63.1183 40.5975 60.6684 40.8738Z" fill="black"/>
<path d="M88.3813 44.24C85.9314 44.5163 83.7191 42.7344 83.4401 40.2601C83.161 37.7857 84.9208 35.5559 87.3707 35.2796C89.8206 35.0033 92.0329 36.7852 92.3119 39.2595C92.591 41.7338 90.8312 43.9637 88.3813 44.24Z" fill="black"/>
<path d="M83.6271 53.4675L73.7912 45.26C73.1717 44.7199 71.6239 43.8949 70.3895 44.9163C69.4818 45.5835 67.1844 47.1614 65.2568 48.1363L60.2261 50.7487L83.6271 53.4675Z" fill="#FFC414"/>
<path d="M60.2348 50.6563L70.0706 58.8638C70.6902 59.404 72.2378 60.229 73.4723 59.2075C74.38 58.5403 76.6774 56.9625 78.605 55.9875L83.6357 53.3751L60.2348 50.6563Z" fill="#FFC414"/>
<path d="M86.117 40.4906C85.408 40.5706 84.7677 40.0548 84.6869 39.3387C84.6062 38.6226 85.1155 37.9772 85.8245 37.8972C86.5336 37.8173 87.1739 38.333 87.2546 39.0491C87.3354 39.7653 86.8261 40.4106 86.117 40.4906Z" fill="white"/>
<path d="M58.4383 37.0145C57.7292 37.0945 57.089 36.5788 57.0082 35.8626C56.9274 35.1465 57.4368 34.5011 58.1458 34.4212C58.8549 34.3412 59.4952 34.8569 59.5759 35.573C59.6567 36.2892 59.1474 36.9345 58.4383 37.0145Z" fill="white"/>
<path d="M60.9092 50.8071L71.3707 54.4364L83.004 53.445" stroke="#D6A206"/>
</g>
<defs>
<clipPath id="clip0_569_2565">
<rect width="116.843" height="121.287" fill="white" transform="matrix(-0.9937 0.112068 0.112068 0.9937 135.226 13.1323)"/>
</clipPath>
</defs>
</svg>
