<svg width="156" height="157" viewBox="0 0 156 157" fill="none" xmlns="http://www.w3.org/2000/svg">
<rect x="0.472153" y="0.529298" width="2.81794" height="17.3895" transform="matrix(0.998199 0.0600461 -0.0538931 0.99855 114.393 32.7639)" fill="#FFE500" stroke="black"/>
<path d="M132.263 24.1618C131.81 32.726 124.522 39.2427 115.988 38.72C107.453 38.1974 100.9 30.8332 101.353 22.2689C101.807 13.7047 109.094 7.18805 117.629 7.71067C126.163 8.23329 132.716 15.5975 132.263 24.1618Z" fill="#FFE500" stroke="black"/>
<rect width="3.03983" height="20.1833" rx="1.51992" transform="matrix(0.665397 0.752038 -0.740468 0.665909 123.269 15.3521)" fill="black"/>
<rect width="3.00949" height="20.145" rx="1.50474" transform="matrix(0.740499 -0.665874 0.665431 0.752007 108.991 16.6426)" fill="black"/>
<g clip-path="url(#clip0_569_2488)">
<path d="M59.611 113.473L60.5395 132.962L50.5328 142.856C50.0336 144.161 49.9831 146.468 53.7752 145.25L59.7494 139.792L61.3372 147.541C62.2158 147.969 64.0748 148.347 64.4816 146.437L63.8356 138.723L65.4967 137.548L73.757 141.875C75.0559 141.912 77.3684 141.215 76.227 138.125L65.1179 133.566L63.6413 114.119L59.611 113.473Z" fill="#FFC414"/>
<path d="M81.4122 107.337L89.6678 125.003L84.1954 138.026C84.2307 139.427 85.0601 141.58 88.0947 138.986L91.5327 131.627L95.9394 138.18C96.9121 138.236 98.7703 137.866 98.4207 135.943L94.8956 129.057L95.9814 127.328L105.243 128.135C106.455 127.667 108.323 126.127 106.097 123.711L94.1201 123.791L85.3743 106.374L81.4122 107.337Z" fill="#FFC414"/>
<path d="M105.951 46.344C113.441 44.3584 127.483 44.5817 123.729 61.3588C122.706 66.5464 118.274 78.1904 108.733 83.2652L105.951 46.344Z" fill="#FFC414"/>
<path d="M61.7334 27.8007C37.175 36.1698 34.0109 58.6947 35.4985 68.9109C31.7585 70.9046 29.9056 75.4294 29.4467 77.4427L11.1859 80.712C18.4928 106.879 39.7513 118.218 49.4672 120.616C76.5826 124.699 92.923 113.526 97.7038 107.429C118.683 83.6452 112.713 57.7764 107.106 47.8149C92.6397 21.9364 70.8301 23.6893 61.7334 27.8007Z" fill="#FFE500"/>
<path d="M63.629 43.6541L70.6753 40.8608" stroke="black"/>
<path d="M56.0171 58.2982C61.2434 57.3625 64.7141 52.325 63.769 47.0465C62.824 41.768 57.8212 38.2475 52.5949 39.1832C47.3686 40.1189 43.8979 45.1565 44.843 50.4349C45.788 55.7134 50.7908 59.2339 56.0171 58.2982Z" stroke="#5CBC00"/>
<path d="M82.5621 47.8461C87.7883 46.9104 91.259 41.8728 90.314 36.5943C89.3689 31.3159 84.3661 27.7954 79.1398 28.7311C73.9135 29.6668 70.4429 34.7043 71.3879 39.9828C72.3329 45.2612 77.3358 48.7818 82.5621 47.8461Z" stroke="#5CBC00"/>
<path d="M32.7255 70.6849C37.108 67.2388 48.6654 60.757 59.8353 62.3987C61.5964 62.6057 65.6408 63.9561 67.73 67.7012C68.2372 68.5485 69.0972 70.9572 68.4794 73.8133C67.403 77.6315 64.8768 85.81 63.3831 87.9781C60.9972 92.1716 54.6249 100.845 48.2224 101.991C42.1651 103.679 29.2773 102.736 26.1849 85.4636C25.7008 81.6164 26.3311 73.2746 32.7255 70.6849Z" fill="#FFC414"/>
<path d="M81.9902 42.1948C84.417 41.7603 86.0286 39.4211 85.5898 36.9701C85.1509 34.519 82.8279 32.8843 80.401 33.3188C77.9742 33.7532 76.3626 36.0924 76.8014 38.5435C77.2402 40.9946 79.5633 42.6293 81.9902 42.1948Z" fill="black"/>
<path d="M56.3915 53.3311C58.8183 52.8966 60.4299 50.5574 59.9911 48.1063C59.5523 45.6552 57.2292 44.0205 54.8024 44.455C52.3755 44.8895 50.7639 47.2287 51.2028 49.6797C51.6416 52.1308 53.9647 53.7656 56.3915 53.3311Z" fill="black"/>
<path d="M63.5817 60.8177L70.6656 50.1441C71.1052 49.4496 72.353 48.2172 73.8277 48.8438C74.888 49.2241 77.5403 50.0806 79.666 50.4648L85.233 51.5325L63.5817 60.8177Z" fill="#FFC414"/>
<path d="M85.1981 51.4469L78.1141 62.1204C77.6746 62.8149 76.4268 64.0474 74.9521 63.4208C73.8917 63.0405 71.2395 62.184 69.1138 61.7998L63.5467 60.7321L85.1981 51.4469Z" fill="#FFC414"/>
<path d="M57.4905 49.0913C58.1929 48.9655 58.6593 48.2885 58.5323 47.5791C58.4053 46.8697 57.7329 46.3966 57.0306 46.5223C56.3282 46.6481 55.8617 47.3251 55.9888 48.0345C56.1158 48.7439 56.7881 49.217 57.4905 49.0913Z" fill="white"/>
<path d="M83.0257 37.8593C83.728 37.7336 84.1945 37.0565 84.0675 36.3472C83.9405 35.6378 83.2681 35.1646 82.5657 35.2904C81.8633 35.4161 81.3969 36.0931 81.5239 36.8025C81.6509 37.5119 82.3233 37.9851 83.0257 37.8593Z" fill="white"/>
<path d="M64.2063 60.8756L72.6869 54.0079L84.9336 51.9045" stroke="#D6A206"/>
</g>
<defs>
<clipPath id="clip0_569_2488">
<rect width="116.843" height="121.287" fill="white" transform="translate(2.61621 36.8887) rotate(-10.1505)"/>
</clipPath>
</defs>
</svg>
