<svg width="156" height="166" viewBox="0 0 156 166" fill="none" xmlns="http://www.w3.org/2000/svg">
<path d="M4.29388 52.8597C1.43901 53.0309 0.765402 55.0718 0.785458 56.0709C0.837126 59.2739 3.9021 59.5056 4.8768 59.3757C8.16765 58.8563 8.58308 56.1536 8.37944 54.8672L5.29231 43.9117C4.20586 41.4374 2.00738 42.6254 2.50465 44.6876L4.29388 52.8597Z" fill="#1A1A1A"/>
<path d="M112.324 123.333C115.945 121.214 123.796 118.194 126.233 123.069C128.882 126.424 130.286 134.725 114.708 141.084L112.324 123.333Z" fill="#E0AA52"/>
<path d="M86.2274 137.102C76.2935 134.765 58.3792 135.449 66.1926 156.886" stroke="black" stroke-width="2"/>
<path d="M45.6036 97.8019C39.6377 104.024 30.213 119.384 40.2415 131.051L39.9958 132.69C35.708 130.669 27.9643 128.101 24.2408 131.136C20.9491 133.322 16.1468 140.573 23.5016 152.422C26.5759 157.047 36.9671 163.835 51.7614 159.377L63.3061 156.204C65.9838 160.542 78.1345 169.076 102.823 153.57C106.461 151.312 113.738 146.005 113.738 142.844C116.215 139.349 119.398 130.809 112.31 124.608C114.231 119.338 115.268 105.817 104.057 93.886C89.7604 86.0987 58.0539 75.9796 45.6036 97.8019Z" fill="#E0AA52" stroke="black" stroke-width="2"/>
<path d="M121.628 37.1232C121.222 38.4183 120.85 39.469 120.576 40.2036L91.5338 19.0483C100.912 6.10944 107.763 2.17623 112.101 1.34346C114.297 0.921768 115.892 1.28485 116.915 1.71941C117.432 1.93878 117.812 2.18025 118.056 2.35952C118.178 2.4491 118.265 2.52278 118.318 2.5698C118.344 2.59328 118.362 2.61004 118.371 2.61869L118.376 2.62417L118.377 2.62508L118.383 2.6312C124.617 8.94341 125.156 18.4874 124.007 26.7086C123.438 30.7873 122.462 34.4639 121.628 37.1232Z" fill="#E0AA51" stroke="black" stroke-width="2"/>
<path d="M34.9012 2.09066C38.9847 2.73218 45.7306 6.17002 55.7937 17.8436L27.5961 37.1205C27.3481 36.5372 27.0228 35.73 26.6683 34.7396C25.8894 32.5639 24.9735 29.5164 24.4218 26.027C23.3151 19.0267 23.6952 10.4077 29.3745 3.41151C29.375 3.41091 29.3757 3.41011 29.3766 3.40912C29.382 3.40285 29.3945 3.38883 29.4142 3.36832C29.4535 3.32725 29.5212 3.26049 29.6184 3.1779C29.8128 3.01269 30.124 2.78516 30.5623 2.57237C31.4271 2.15244 32.8347 1.766 34.9012 2.09066Z" fill="#E0AA51" stroke="black" stroke-width="2"/>
<path d="M73.8813 16.689L73.8806 16.689C54.653 15.8498 42.7729 20.2755 34.7384 28.2656C26.6499 36.3095 22.3033 48.1065 18.4865 62.3937L73.8813 16.689ZM73.8813 16.689C89.8707 17.3765 102.384 22.0057 111.616 29.8883C120.848 37.7716 126.886 48.9841 129.789 62.9964C131.543 71.4609 130.782 78.4273 128.256 84.1251M73.8813 16.689L128.256 84.1251M128.256 84.1251C125.728 89.8271 121.396 94.3421 115.87 97.8359M128.256 84.1251L115.87 97.8359M115.87 97.8359C104.784 104.844 89.0036 107.669 73.9242 107.669M115.87 97.8359L73.9242 107.669M73.9242 107.669C58.8285 107.669 42.5371 105.077 31.2551 98.1065M73.9242 107.669L31.2551 98.1065M31.2551 98.1065C25.6335 94.6332 21.2922 90.0961 18.9239 84.2789M31.2551 98.1065L18.9239 84.2789M18.9239 84.2789C16.5567 78.4644 16.1182 71.2669 18.4865 62.3939L18.9239 84.2789Z" fill="#E0AA52" stroke="black" stroke-width="2"/>
<path d="M29.8913 28.7935C29.8913 28.7935 27.881 6.61905 31.1321 4.71431C31.1321 4.71431 36.0956 2.49935 44.7817 16.757L29.8913 28.7935Z" fill="white"/>
<path d="M116.53 30.0839C116.53 30.0839 120.519 7.25808 117.429 5.07414C117.429 5.07414 112.025 4.03801 102.142 17.4829L116.53 30.0839Z" fill="white"/>
<path d="M72.764 98.7969C84.1368 98.7969 93.3563 89.5774 93.3563 78.2046C93.3563 66.8318 84.1368 57.6123 72.764 57.6123C61.3912 57.6123 52.1717 66.8318 52.1717 78.2046C52.1717 89.5774 61.3912 98.7969 72.764 98.7969Z" fill="white"/>
<path d="M124.21 85.0975C123.59 93.6471 101.521 104.914 74.1287 104.914C46.7365 104.914 23.5321 96.042 25.015 85.0975C28.0055 63.0782 47.2204 69.5866 74.6127 69.5866C102.005 69.5866 125.979 61.0121 124.21 85.0975Z" fill="white"/>
<path d="M38.9315 93.8647C43.482 93.8647 47.1709 90.698 47.1709 86.7917C47.1709 82.8854 43.482 79.7188 38.9315 79.7188C34.381 79.7188 30.6921 82.8854 30.6921 86.7917C30.6921 90.698 34.381 93.8647 38.9315 93.8647Z" fill="#F9BCBE"/>
<path d="M108.333 93.8647C112.884 93.8647 116.573 90.698 116.573 86.7917C116.573 82.8854 112.884 79.7188 108.333 79.7188C103.783 79.7188 100.094 82.8854 100.094 86.7917C100.094 90.698 103.783 93.8647 108.333 93.8647Z" fill="#F9BCBE"/>
<path d="M61.0869 59.0459C62.4301 59.0459 63.519 57.957 63.519 56.6138C63.519 55.2705 62.4301 54.1816 61.0869 54.1816C59.7437 54.1816 58.6548 55.2705 58.6548 56.6138C58.6548 57.957 59.7437 59.0459 61.0869 59.0459Z" fill="black" stroke="#231F20" stroke-width="0.25" stroke-linecap="round" stroke-linejoin="round"/>
<path d="M72.7639 70.0068C74.1071 70.0068 75.196 68.9179 75.196 67.5747C75.196 66.2315 74.1071 65.1426 72.7639 65.1426C71.4207 65.1426 70.3318 66.2315 70.3318 67.5747C70.3318 68.9179 71.4207 70.0068 72.7639 70.0068Z" fill="black" stroke="#231F20" stroke-width="0.25" stroke-linecap="round" stroke-linejoin="round"/>
<path d="M82.2314 59.0459C83.5746 59.0459 84.6635 57.957 84.6635 56.6138C84.6635 55.2705 83.5746 54.1816 82.2314 54.1816C80.8882 54.1816 79.7993 55.2705 79.7993 56.6138C79.7993 57.957 80.8882 59.0459 82.2314 59.0459Z" fill="black" stroke="#231F20" stroke-width="0.25" stroke-linecap="round" stroke-linejoin="round"/>
<path d="M64.3719 71.2471C66.4526 73.7503 71.044 76.8191 72.7638 69.0682" stroke="black" stroke-width="4" stroke-linecap="round"/>
<path d="M81.007 70.0059C79.6386 72.9219 76.0917 76.968 72.8509 69.8241" stroke="black" stroke-width="4" stroke-linecap="round"/>
<path d="M55.7898 110.071L70.1946 118.335L90.5506 110.861C90.8852 110.012 90.2865 108.655 85.2148 110.014C84.8 109.886 85.1964 106.448 84.5715 106.187C83.8036 105.893 83.0434 106.371 82.2676 106.972L70.9857 114.977L58.3921 109.068C57.5559 108.678 55.8647 108.334 55.7898 110.071Z" fill="white"/>
<path d="M56.0379 109.321C55.32 108.813 53.8624 108.475 53.7755 111.184L53.7632 138.467L66.3341 144.527C67.379 144.818 71.4914 144.85 79.5815 142.654L93.1779 126.23C93.1467 120.862 92.7775 110.062 91.5498 109.804L71.5372 116.131C71.3296 116.631 67.9392 115.97 56.0379 109.321Z" fill="#5CBC00"/>
<path d="M53.8211 117.011C58.4308 124.801 59.3567 132.468 56.033 134.434C52.7092 136.401 46.1257 132.891 39.9031 125.872C35.8707 121.292 35.7007 120.013 43.0645 114.177C47.2158 110.69 49.2115 109.22 53.8211 117.011Z" fill="#E0AA52"/>
<path d="M40.9537 126.778C67.9204 150.709 59.8159 112.082 44.0849 110.34" stroke="black" stroke-width="2" stroke-linecap="round"/>
<path d="M105.698 115.766C108.595 122.499 107.947 124.013 103.655 127.466C90.216 136.699 89.6789 134.504 84.6408 126.777C82.7332 114.526 87.6152 114.011 95.2394 111.154C102.837 107.157 102.835 111.005 105.698 115.766Z" fill="#E0AA52"/>
<path d="M102.068 107.811C101.225 109.203 94.137 112.531 91.5348 113.138C89.306 112.442 84.7762 113.593 84.487 123.761C84.6677 129.768 88.4627 139.468 102.197 130.21C103.04 129.641 105.052 128.2 106.353 126.985" stroke="black" stroke-width="2" stroke-linecap="round"/>
<ellipse cx="72.5543" cy="147.559" rx="11.4504" ry="13.43" transform="rotate(7.88105 72.5543 147.559)" fill="white"/>
<path d="M84.7398 136.449L81.3239 140.346C80.05 145.133 71.2445 155.57 68.3861 160.137C73.8947 163.093 83.1218 163.013 95.7544 156.399L84.7398 136.449Z" fill="white"/>
<ellipse cx="4.48404" cy="6.27729" rx="4.48404" ry="6.27729" transform="matrix(0.941692 -0.336477 0.300101 0.953907 61.4447 146.975)" fill="black"/>
<ellipse cx="75.0043" cy="146.128" rx="1.56041" ry="2.05246" transform="rotate(17.6224 75.0043 146.128)" fill="black"/>
<ellipse cx="71.8983" cy="140.6" rx="1.56041" ry="2.05246" transform="rotate(17.6224 71.8983 140.6)" fill="black"/>
<ellipse cx="64.8142" cy="140.401" rx="0.901199" ry="2.05246" transform="rotate(17.6224 64.8142 140.401)" fill="black"/>
<path d="M82.1487 139.395C77.6657 133.035 64.0484 128.995 61.3703 145.063C59.9625 152.554 63.1851 163.856 79.0473 162.345" stroke="black" stroke-width="2" stroke-linecap="round"/>
<path d="M40.4403 133.416L41.2666 130.578L52.2142 158.163C51.7374 158.934 37.3729 162.105 31.3018 157.203C37.1143 155.311 48.1874 147.885 33.2562 130.993L35.2171 131.47L40.4403 133.416Z" fill="white"/>
<path d="M42.6719 144.742C42.6719 152.335 37.4539 159.862 34.7152 158.797C27.1586 157.562 20.5594 149.133 20.5594 141.54C20.1845 134.405 25.0172 128.457 33.8037 130.993C37.3836 131.688 42.6719 137.149 42.6719 144.742Z" fill="white"/>
<ellipse cx="4.48404" cy="6.27729" rx="4.48404" ry="6.27729" transform="matrix(0.982359 -0.187003 0.149178 0.98881 20.2907 138.842)" fill="black"/>
<ellipse cx="31.4537" cy="139.09" rx="1.56041" ry="2.05246" transform="rotate(26.5068 31.4537 139.09)" fill="black"/>
<ellipse cx="27.945" cy="134.727" rx="1.56041" ry="2.05246" transform="rotate(26.5068 27.945 134.727)" fill="black"/>
<ellipse cx="22.6351" cy="135.868" rx="0.901199" ry="2.05246" transform="rotate(26.5068 22.6351 135.868)" fill="black"/>
<path d="M144.524 33.0957L154.321 38.1512C154.658 38.3661 155.255 38.9606 154.943 39.6189L148.452 50.0471C147.497 51.4691 143.454 51.7033 142.45 49.0292C141.913 47.2882 142.243 44.2743 147.867 46.1475L151.159 40.8991L144.374 37.0615L139.205 44.6137C137.92 46.2646 134.864 46.5571 133.721 44.142C132.606 41.4801 133.752 38.0004 139.633 39.7153C139.983 39.0952 144 33.0751 144.524 33.0957Z" fill="black" stroke="black"/>
</svg>
